<svg width="146" height="99" viewBox="0 0 146 99" fill="none" xmlns="http://www.w3.org/2000/svg">
<path d="M15.2547 35V8.81818H26.0701C28.0303 8.81818 29.7221 9.2017 31.1454 9.96875C32.5772 10.7273 33.6809 11.7884 34.4564 13.152C35.232 14.5071 35.6198 16.0838 35.6198 17.8821C35.6198 19.6889 35.2235 21.2699 34.4309 22.625C33.6468 23.9716 32.526 25.0156 31.0687 25.7571C29.6113 26.4986 27.8812 26.8693 25.8783 26.8693H19.205V21.8835H24.7022C25.6567 21.8835 26.4536 21.7173 27.0928 21.3849C27.7405 21.0526 28.2306 20.5881 28.563 19.9915C28.8954 19.3864 29.0616 18.6832 29.0616 17.8821C29.0616 17.0724 28.8954 16.3736 28.563 15.7855C28.2306 15.1889 27.7405 14.7287 27.0928 14.4048C26.4451 14.081 25.6482 13.919 24.7022 13.919H21.5829V35H15.2547ZM43.9105 8.81818V35H37.6591V8.81818H43.9105ZM52.3451 35.3324C51.0923 35.3324 49.98 35.1236 49.0084 34.706C48.0454 34.2798 47.2826 33.6406 46.7201 32.7884C46.1661 31.9276 45.8891 30.8494 45.8891 29.554C45.8891 28.4631 46.0809 27.5426 46.4644 26.7926C46.8479 26.0426 47.3763 25.4332 48.0496 24.9645C48.7229 24.4957 49.4985 24.142 50.3763 23.9034C51.2542 23.6562 52.1917 23.4901 53.1888 23.4048C54.3053 23.3026 55.2045 23.196 55.8863 23.0852C56.5681 22.9659 57.0624 22.7997 57.3692 22.5866C57.6846 22.3651 57.8423 22.054 57.8423 21.6534V21.5895C57.8423 20.9332 57.6164 20.4261 57.1647 20.0682C56.713 19.7102 56.1036 19.5312 55.3366 19.5312C54.5099 19.5312 53.8451 19.7102 53.3423 20.0682C52.8394 20.4261 52.5198 20.9205 52.3834 21.5511L46.6178 21.3466C46.7883 20.1534 47.2272 19.0881 47.9346 18.1506C48.6505 17.2045 49.6306 16.4631 50.8749 15.9261C52.1278 15.3807 53.632 15.108 55.3877 15.108C56.6405 15.108 57.7954 15.2571 58.8522 15.5554C59.909 15.8452 60.8295 16.2713 61.6136 16.8338C62.3977 17.3878 63.0028 18.0696 63.4289 18.8793C63.8636 19.6889 64.0809 20.6136 64.0809 21.6534V35H58.2002V32.2642H58.0468C57.6974 32.929 57.2499 33.4915 56.7045 33.9517C56.1675 34.4119 55.5326 34.7571 54.7996 34.9872C54.0752 35.2173 53.257 35.3324 52.3451 35.3324ZM54.2755 31.2415C54.9488 31.2415 55.5539 31.1051 56.0908 30.8324C56.6363 30.5597 57.0709 30.1847 57.3948 29.7074C57.7187 29.2216 57.8806 28.6591 57.8806 28.0199V26.1534C57.7016 26.2472 57.4843 26.3324 57.2286 26.4091C56.9815 26.4858 56.7087 26.5582 56.4104 26.6264C56.1121 26.6946 55.8053 26.7543 55.49 26.8054C55.1746 26.8565 54.8721 26.9034 54.5823 26.946C53.9942 27.0398 53.4914 27.1847 53.0738 27.3807C52.6647 27.5767 52.3494 27.8324 52.1278 28.1477C51.9147 28.4545 51.8082 28.821 51.8082 29.2472C51.8082 29.8949 52.0383 30.3892 52.4985 30.7301C52.9673 31.071 53.5596 31.2415 54.2755 31.2415ZM73.0748 23.8011V35H66.8233V15.3636H72.7679V18.9688H72.9853C73.4199 17.767 74.1614 16.8253 75.2097 16.1435C76.258 15.4531 77.5066 15.108 78.9554 15.108C80.3361 15.108 81.5336 15.419 82.5478 16.0412C83.5705 16.6548 84.3631 17.5156 84.9256 18.6236C85.4966 19.723 85.7779 21.0099 85.7694 22.4844V35H79.5179V23.7116C79.5265 22.6207 79.2495 21.7685 78.687 21.1548C78.133 20.5412 77.3617 20.2344 76.373 20.2344C75.7168 20.2344 75.1373 20.3793 74.6344 20.669C74.1401 20.9503 73.7566 21.3551 73.4838 21.8835C73.2196 22.4119 73.0833 23.0511 73.0748 23.8011ZM101.542 8.81818V35H95.2141V8.81818H101.542ZM115.519 15.3636V19.9659H103.131V15.3636H115.519ZM105.726 10.6591H111.978V28.8253C111.978 29.2088 112.037 29.5199 112.156 29.7585C112.284 29.9886 112.468 30.1548 112.706 30.2571C112.945 30.3509 113.23 30.3977 113.563 30.3977C113.801 30.3977 114.053 30.3764 114.317 30.3338C114.59 30.2827 114.794 30.2401 114.931 30.206L115.877 34.7188C115.578 34.804 115.156 34.9105 114.611 35.0384C114.074 35.1662 113.431 35.2472 112.681 35.2812C111.215 35.3494 109.958 35.179 108.909 34.7699C107.87 34.3523 107.073 33.7045 106.519 32.8267C105.973 31.9489 105.709 30.8452 105.726 29.5156V10.6591Z" fill="#1D1E2C"/>
<path d="M14.2929 79V52.8182H25.2105C27.1707 52.8182 28.8113 53.0952 30.1324 53.6491C31.4619 54.2031 32.4591 54.9787 33.1238 55.9759C33.7971 56.973 34.1338 58.1278 34.1338 59.4403C34.1338 60.4375 33.925 61.3281 33.5074 62.1122C33.0897 62.8878 32.5145 63.5312 31.7815 64.0426C31.0485 64.554 30.2005 64.9119 29.2375 65.1165V65.3722C30.2943 65.4233 31.2701 65.7088 32.165 66.2287C33.0684 66.7486 33.7929 67.473 34.3383 68.402C34.8838 69.3224 35.1565 70.4134 35.1565 71.6747C35.1565 73.081 34.7985 74.3381 34.0826 75.446C33.3667 76.5455 32.3312 77.4148 30.9761 78.054C29.621 78.6847 27.9761 79 26.0414 79H14.2929ZM20.621 73.8991H24.5329C25.9051 73.8991 26.915 73.6392 27.5628 73.1193C28.219 72.5994 28.5471 71.875 28.5471 70.946C28.5471 70.2727 28.3895 69.6932 28.0741 69.2074C27.7588 68.7131 27.3113 68.3338 26.7318 68.0696C26.1522 67.7969 25.4576 67.6605 24.648 67.6605H20.621V73.8991ZM20.621 63.5824H24.1238C24.8142 63.5824 25.4278 63.4673 25.9647 63.2372C26.5017 63.0071 26.9193 62.6747 27.2176 62.2401C27.5244 61.8054 27.6778 61.2812 27.6778 60.6676C27.6778 59.7898 27.3667 59.0994 26.7446 58.5966C26.1224 58.0938 25.2829 57.8423 24.2261 57.8423H20.621V63.5824ZM46.2981 79.3707C44.2441 79.3707 42.4714 78.9659 40.9799 78.1562C39.497 77.3381 38.3549 76.1747 37.5538 74.6662C36.7612 73.1491 36.3649 71.3466 36.3649 69.2585C36.3649 67.2301 36.7654 65.4574 37.5666 63.9403C38.3677 62.4148 39.497 61.2301 40.9543 60.3864C42.4117 59.5341 44.1291 59.108 46.1063 59.108C47.5041 59.108 48.7825 59.3253 49.9416 59.7599C51.1006 60.1946 52.1021 60.8381 52.9458 61.6903C53.7896 62.5426 54.4458 63.5952 54.9146 64.848C55.3833 66.0923 55.6177 67.5199 55.6177 69.1307V70.6903H38.5509V67.0597H49.8009C49.7924 66.3949 49.6347 65.8026 49.3279 65.2827C49.0211 64.7628 48.5992 64.358 48.0623 64.0682C47.5339 63.7699 46.9245 63.6207 46.2342 63.6207C45.5353 63.6207 44.9089 63.7784 44.3549 64.0938C43.8009 64.4006 43.362 64.8224 43.0381 65.3594C42.7143 65.8878 42.5438 66.4886 42.5268 67.1619V70.8565C42.5268 71.6577 42.6845 72.3608 42.9998 72.9659C43.3151 73.5625 43.7626 74.027 44.3421 74.3594C44.9217 74.6918 45.612 74.858 46.4131 74.858C46.9671 74.858 47.47 74.7812 47.9217 74.6278C48.3734 74.4744 48.7612 74.2486 49.085 73.9503C49.4089 73.652 49.6518 73.2855 49.8137 72.8509L55.5538 73.017C55.3151 74.304 54.791 75.4247 53.9813 76.3793C53.1802 77.3253 52.1276 78.0625 50.8237 78.5909C49.5197 79.1108 48.0112 79.3707 46.2981 79.3707ZM68.8143 59.3636V63.9659H56.4265V59.3636H68.8143ZM59.0217 54.6591H65.2731V72.8253C65.2731 73.2088 65.3328 73.5199 65.4521 73.7585C65.58 73.9886 65.7632 74.1548 66.0018 74.2571C66.2405 74.3509 66.526 74.3977 66.8584 74.3977C67.097 74.3977 67.3484 74.3764 67.6126 74.3338C67.8853 74.2827 68.0899 74.2401 68.2263 74.206L69.1723 78.7188C68.874 78.804 68.4521 78.9105 67.9067 79.0384C67.3697 79.1662 66.7263 79.2472 65.9763 79.2812C64.5103 79.3494 63.2532 79.179 62.205 78.7699C61.1652 78.3523 60.3683 77.7045 59.8143 76.8267C59.2689 75.9489 59.0047 74.8452 59.0217 73.5156V54.6591ZM82.0078 59.3636V63.9659H69.62V59.3636H82.0078ZM72.2151 54.6591H78.4666V72.8253C78.4666 73.2088 78.5262 73.5199 78.6455 73.7585C78.7734 73.9886 78.9566 74.1548 79.1953 74.2571C79.4339 74.3509 79.7194 74.3977 80.0518 74.3977C80.2904 74.3977 80.5419 74.3764 80.8061 74.3338C81.0788 74.2827 81.2833 74.2401 81.4197 74.206L82.3657 78.7188C82.0674 78.804 81.6455 78.9105 81.1001 79.0384C80.5632 79.1662 79.9197 79.2472 79.1697 79.2812C77.7038 79.3494 76.4467 79.179 75.3984 78.7699C74.3586 78.3523 73.5617 77.7045 73.0078 76.8267C72.4623 75.9489 72.1981 74.8452 72.2151 73.5156V54.6591ZM93.0854 79.3707C91.0315 79.3707 89.2587 78.9659 87.7673 78.1562C86.2843 77.3381 85.1423 76.1747 84.3411 74.6662C83.5485 73.1491 83.1522 71.3466 83.1522 69.2585C83.1522 67.2301 83.5528 65.4574 84.3539 63.9403C85.155 62.4148 86.2843 61.2301 87.7417 60.3864C89.1991 59.5341 90.9164 59.108 92.8937 59.108C94.2914 59.108 95.5698 59.3253 96.7289 59.7599C97.888 60.1946 98.8894 60.8381 99.7332 61.6903C100.577 62.5426 101.233 63.5952 101.702 64.848C102.171 66.0923 102.405 67.5199 102.405 69.1307V70.6903H85.3383V67.0597H96.5883C96.5798 66.3949 96.4221 65.8026 96.1153 65.2827C95.8085 64.7628 95.3866 64.358 94.8496 64.0682C94.3212 63.7699 93.7119 63.6207 93.0215 63.6207C92.3227 63.6207 91.6962 63.7784 91.1423 64.0938C90.5883 64.4006 90.1494 64.8224 89.8255 65.3594C89.5016 65.8878 89.3312 66.4886 89.3141 67.1619V70.8565C89.3141 71.6577 89.4718 72.3608 89.7871 72.9659C90.1025 73.5625 90.5499 74.027 91.1295 74.3594C91.709 74.6918 92.3994 74.858 93.2005 74.858C93.7545 74.858 94.2573 74.7812 94.709 74.6278C95.1607 74.4744 95.5485 74.2486 95.8724 73.9503C96.1962 73.652 96.4391 73.2855 96.6011 72.8509L102.341 73.017C102.102 74.304 101.578 75.4247 100.769 76.3793C99.9675 77.3253 98.915 78.0625 97.611 78.5909C96.307 79.1108 94.7985 79.3707 93.0854 79.3707ZM104.518 79V59.3636H110.59V62.9432H110.795C111.153 61.6477 111.737 60.6847 112.546 60.054C113.356 59.4148 114.298 59.0952 115.372 59.0952C115.661 59.0952 115.96 59.1165 116.266 59.1591C116.573 59.1932 116.859 59.2486 117.123 59.3253V64.7585C116.825 64.6562 116.433 64.5753 115.947 64.5156C115.47 64.456 115.043 64.4261 114.668 64.4261C113.927 64.4261 113.258 64.5923 112.661 64.9247C112.073 65.2486 111.609 65.7045 111.268 66.2926C110.935 66.8722 110.769 67.554 110.769 68.3381V79H104.518Z" fill="#70B77E"/>
<path d="M0 92H133.5" stroke="#B6C5C3" stroke-width="2"/>
<path d="M15 44H117.5" stroke="#B6C5C3" stroke-width="2" stroke-dasharray="8 7"/>
<path d="M138 85L144.5 91.5L138 98" stroke="#B6C5C3" stroke-width="2"/>
<path d="M1 92.5L0.999996 7" stroke="#B6C5C3" stroke-width="2"/>
</svg>
